<mxfile host="app.diagrams.net" modified="2023-04-20T02:15:01.352Z" agent="Mozilla/5.0 (Windows NT 10.0; Win64; x64) AppleWebKit/537.36 (KHTML, like Gecko) Chrome/112.0.0.0 Safari/537.36" etag="uhdRBI8aOS9Gkp90XDDo" version="21.1.0" type="github">
  <diagram name="Escalator" id="w0xh64aj4eljTDXznn0Z">
    <mxGraphModel dx="2049" dy="1091" grid="1" gridSize="10" guides="1" tooltips="1" connect="1" arrows="1" fold="1" page="1" pageScale="1" pageWidth="827" pageHeight="1169" math="0" shadow="0">
      <root>
        <mxCell id="0" />
        <mxCell id="1" parent="0" />
        <mxCell id="lGbxnk5JKXpfs4anblki-14" value="" style="whiteSpace=wrap;html=1;aspect=fixed;" vertex="1" parent="1">
          <mxGeometry x="520" y="141" width="265" height="265" as="geometry" />
        </mxCell>
        <mxCell id="lGbxnk5JKXpfs4anblki-4" value="" style="image;sketch=0;aspect=fixed;html=1;points=[];align=center;fontSize=12;image=img/lib/mscae/Notification_Hubs.svg;" vertex="1" parent="1">
          <mxGeometry x="170" y="210" width="50" height="50" as="geometry" />
        </mxCell>
        <mxCell id="lGbxnk5JKXpfs4anblki-6" value="" style="image;aspect=fixed;perimeter=ellipsePerimeter;html=1;align=center;shadow=0;dashed=0;fontColor=#4277BB;labelBackgroundColor=default;fontSize=12;spacingTop=3;image=img/lib/ibm/management/alert_notification.svg;" vertex="1" parent="1">
          <mxGeometry x="80" y="205" width="60" height="60" as="geometry" />
        </mxCell>
        <mxCell id="lGbxnk5JKXpfs4anblki-7" value="" style="shape=image;html=1;verticalAlign=top;verticalLabelPosition=bottom;labelBackgroundColor=#ffffff;imageAspect=0;aspect=fixed;image=https://cdn1.iconfinder.com/data/icons/ui-essential-17/32/UI_Essential_Outline_1_essential-app-ui-phone-notification-alert-128.png" vertex="1" parent="1">
          <mxGeometry x="80" y="295" width="58" height="58" as="geometry" />
        </mxCell>
        <mxCell id="lGbxnk5JKXpfs4anblki-8" value="" style="verticalLabelPosition=bottom;html=1;verticalAlign=top;align=center;strokeColor=none;fillColor=#00BEF2;shape=mxgraph.azure.azure_alert;" vertex="1" parent="1">
          <mxGeometry x="170" y="302.75" width="50" height="42.5" as="geometry" />
        </mxCell>
        <mxCell id="lGbxnk5JKXpfs4anblki-9" value="SRE Alert notifications" style="swimlane;whiteSpace=wrap;html=1;" vertex="1" parent="1">
          <mxGeometry x="50" y="170" width="200" height="200" as="geometry" />
        </mxCell>
        <mxCell id="lGbxnk5JKXpfs4anblki-10" value="" style="image;sketch=0;aspect=fixed;html=1;points=[];align=center;fontSize=12;image=img/lib/mscae/Person.svg;" vertex="1" parent="1">
          <mxGeometry x="727" y="215" width="37" height="50" as="geometry" />
        </mxCell>
        <mxCell id="lGbxnk5JKXpfs4anblki-11" value="" style="image;sketch=0;aspect=fixed;html=1;points=[];align=center;fontSize=12;image=img/lib/mscae/Person.svg;" vertex="1" parent="1">
          <mxGeometry x="560" y="218" width="37" height="50" as="geometry" />
        </mxCell>
        <mxCell id="lGbxnk5JKXpfs4anblki-12" value="" style="image;sketch=0;aspect=fixed;html=1;points=[];align=center;fontSize=12;image=img/lib/mscae/Person.svg;" vertex="1" parent="1">
          <mxGeometry x="640" y="215" width="37" height="50" as="geometry" />
        </mxCell>
        <mxCell id="lGbxnk5JKXpfs4anblki-15" value="" style="endArrow=classic;html=1;rounded=0;exitX=1;exitY=0.5;exitDx=0;exitDy=0;" edge="1" parent="1" source="lGbxnk5JKXpfs4anblki-9" target="lGbxnk5JKXpfs4anblki-14">
          <mxGeometry width="50" height="50" relative="1" as="geometry">
            <mxPoint x="510" y="460" as="sourcePoint" />
            <mxPoint x="520" y="270" as="targetPoint" />
          </mxGeometry>
        </mxCell>
        <mxCell id="lGbxnk5JKXpfs4anblki-19" value="" style="html=1;shadow=0;dashed=0;align=center;verticalAlign=middle;shape=mxgraph.arrows2.jumpInArrow;dy=15;dx=38;arrowHead=55;flipH=1;direction=north;" vertex="1" parent="1">
          <mxGeometry x="530" y="274" width="70" height="86" as="geometry" />
        </mxCell>
        <mxCell id="lGbxnk5JKXpfs4anblki-20" value="" style="html=1;shadow=0;dashed=0;align=center;verticalAlign=middle;shape=mxgraph.arrows2.jumpInArrow;dy=15;dx=38;arrowHead=55;flipH=1;direction=north;" vertex="1" parent="1">
          <mxGeometry x="530" y="274" width="147" height="106" as="geometry" />
        </mxCell>
        <mxCell id="lGbxnk5JKXpfs4anblki-21" value="" style="html=1;shadow=0;dashed=0;align=center;verticalAlign=middle;shape=mxgraph.arrows2.jumpInArrow;dy=15;dx=38;arrowHead=55;flipH=1;direction=north;" vertex="1" parent="1">
          <mxGeometry x="530" y="274" width="234" height="126" as="geometry" />
        </mxCell>
        <mxCell id="lGbxnk5JKXpfs4anblki-22" value="" style="shape=image;html=1;verticalAlign=top;verticalLabelPosition=bottom;labelBackgroundColor=#ffffff;imageAspect=0;aspect=fixed;image=https://cdn2.iconfinder.com/data/icons/kids/128x128/apps/agt_action_fail.png" vertex="1" parent="1">
          <mxGeometry x="686" y="298" width="78" height="78" as="geometry" />
        </mxCell>
        <mxCell id="lGbxnk5JKXpfs4anblki-23" value="Escalator" style="sketch=0;points=[[0.015,0.015,0],[0.985,0.015,0],[0.985,0.985,0],[0.015,0.985,0],[0.25,0,0],[0.5,0,0],[0.75,0,0],[1,0.25,0],[1,0.5,0],[1,0.75,0],[0.75,1,0],[0.5,1,0],[0.25,1,0],[0,0.75,0],[0,0.5,0],[0,0.25,0]];verticalLabelPosition=bottom;html=1;verticalAlign=top;aspect=fixed;align=center;pointerEvents=1;shape=mxgraph.cisco19.rect;prIcon=next_generation_intrusion_prevention_system;fillColor=#FAFAFA;strokeColor=#005073;" vertex="1" parent="1">
          <mxGeometry x="310" y="480" width="130" height="130" as="geometry" />
        </mxCell>
        <mxCell id="lGbxnk5JKXpfs4anblki-24" value="" style="shape=link;html=1;rounded=0;exitX=0.5;exitY=0;exitDx=0;exitDy=0;exitPerimeter=0;" edge="1" parent="1" source="lGbxnk5JKXpfs4anblki-23">
          <mxGeometry width="100" relative="1" as="geometry">
            <mxPoint x="490" y="440" as="sourcePoint" />
            <mxPoint x="375" y="270" as="targetPoint" />
          </mxGeometry>
        </mxCell>
        <mxCell id="lGbxnk5JKXpfs4anblki-25" value="" style="shape=mxgraph.cisco.people.androgenous_person;html=1;pointerEvents=1;dashed=0;fillColor=#036897;strokeColor=#ffffff;strokeWidth=2;verticalLabelPosition=bottom;verticalAlign=top;align=center;outlineConnect=0;" vertex="1" parent="1">
          <mxGeometry x="695" y="516" width="69" height="82" as="geometry" />
        </mxCell>
        <mxCell id="lGbxnk5JKXpfs4anblki-26" value="" style="shape=flexArrow;endArrow=classic;html=1;rounded=0;exitX=1;exitY=0.5;exitDx=0;exitDy=0;exitPerimeter=0;entryX=-0.072;entryY=0.366;entryDx=0;entryDy=0;entryPerimeter=0;" edge="1" parent="1" source="lGbxnk5JKXpfs4anblki-23" target="lGbxnk5JKXpfs4anblki-25">
          <mxGeometry width="50" height="50" relative="1" as="geometry">
            <mxPoint x="510" y="460" as="sourcePoint" />
            <mxPoint x="560" y="410" as="targetPoint" />
          </mxGeometry>
        </mxCell>
        <mxCell id="lGbxnk5JKXpfs4anblki-27" value="" style="image;sketch=0;aspect=fixed;html=1;points=[];align=center;fontSize=12;image=img/lib/mscae/Notification.svg;" vertex="1" parent="1">
          <mxGeometry x="530" y="480" width="50" height="50" as="geometry" />
        </mxCell>
      </root>
    </mxGraphModel>
  </diagram>
</mxfile>
